<svg xmlns="http://www.w3.org/2000/svg" viewBox="0 0 22.1 20"><title>3323334Asset 11</title><g id="Layer_2" data-name="Layer 2"><g id="Layer_1-2" data-name="Layer 1"><path d="M22,6.5a.52.52,0,0,0-.4-.18h-7.9V2.63a2.63,2.63,0,1,0-5.26,0V6.32H.53a.52.52,0,0,0-.41.18A.52.52,0,0,0,0,6.93l2.1,12.63a.53.53,0,0,0,.52.44H19.47a.53.53,0,0,0,.52-.44L22.1,6.93A.56.56,0,0,0,22,6.5ZM9.47,2.63a1.58,1.58,0,1,1,3.16,0V6.32H9.47ZM7,15.77l-.13,0a.53.53,0,0,1-.51-.4l-1-4.21a.53.53,0,1,1,1-.25l1,4.21A.52.52,0,0,1,7,15.77Zm4.61-.51a.53.53,0,0,1-.53.53.52.52,0,0,1-.52-.53V11.05a.52.52,0,0,1,.52-.52.52.52,0,0,1,.53.52Zm5.25-4.08-1.06,4.21a.52.52,0,0,1-.51.4l-.12,0a.52.52,0,0,1-.39-.63l1.06-4.21a.52.52,0,0,1,.63-.39A.53.53,0,0,1,16.83,11.18Z"/></g></g></svg>