<svg xmlns="http://www.w3.org/2000/svg" viewBox="0 0 117.27 29.69"><title>3323334Asset 11</title><g id="Layer_2" data-name="Layer 2"><g id="Layer_1-2" data-name="Layer 1"><path d="M6.59,8.84v2.43A5.52,5.52,0,0,1,12,8.06a5.67,5.67,0,0,1,5.5,3.21,6.27,6.27,0,0,1,5.9-3.21,6.62,6.62,0,0,1,4.77,1.78c1.3,1.3,1.77,2.77,1.77,5.81V28.91H23.37V16.82c0-2-1-3.29-2.56-3.29s-2.56,1.25-2.56,3.29V28.91H11.66V17c0-2.21-.95-3.51-2.6-3.51a2.37,2.37,0,0,0-1.95,1A4.18,4.18,0,0,0,6.59,17V28.91H0V8.84Z"/><path d="M50,8.84h6.59V28.91H50V26.66a8.39,8.39,0,0,1-6.8,3c-5.73,0-9.84-4.37-9.84-10.53,0-6.41,4.38-11.1,10.4-11.1A7.69,7.69,0,0,1,50,11ZM40.33,19c0,3.08,2.08,5.46,4.77,5.46S50,22,50,18.94c0-3.2-2-5.41-4.9-5.41S40.33,15.82,40.33,19Z"/><path d="M67.68,8.84v2.73a4.49,4.49,0,0,1,1.73-2.64,5.11,5.11,0,0,1,2.9-.87H73v6.77c-.47-.05-.95-.09-1.21-.09a4.09,4.09,0,0,0-3.42,1.6c-.52.7-.65,1.43-.65,3.12v9.45H61.09V8.84Z"/><path d="M82.08,28.91H75.49V0h6.59V16l4.47-7.16H94l-5.85,9.54L94,28.91H86.55l-4.47-8Z"/><path d="M104,22.15c0,1,.34,1.22,1.6,1.3h.69v5.46h-5.07c-2.82-.08-3.86-1.25-3.81-4.16V14.18h-2V8.71h2V3.77H104V8.71h2.29v5.47H104Z"/><path d="M117.27,26a3.64,3.64,0,1,1-3.59-3.69A3.51,3.51,0,0,1,117.27,26Z"/></g></g></svg>